<svg xmlns="http://www.w3.org/2000/svg">
<g id="Regular-L">
<path d="M105.726 16.7029L73.5501 16.7029L73.5501-25.4981Q73.5501-27.5538 74.7915-28.7827Q76.033-30.0116 78.0887-30.0116L101.24-30.0116Q105.726-30.0116 105.726-25.4981ZM34.7329 12.1786Q34.7329 18.3503 38.2864 21.851Q41.84 25.3518 48.1172 25.3518L131.375 25.3518Q137.68 25.3518 141.219 21.851Q144.759 18.3503 144.759 12.1786L144.759-40.3029L93.5696-83.2164Q91.6875-84.8024 89.6781-84.7884Q87.6688-84.7745 85.8671-83.2164L34.7329-40.3581ZM16.084-44.6889Q16.084-43.018 17.3039-41.719Q18.5239-40.42 20.7248-40.42Q21.8657-40.42 22.7528-40.9363Q23.6399-41.4526 24.4889-42.1161L87.337-94.914Q89.7323-96.9597 92.1549-94.914L154.892-42.1161Q155.741-41.4526 156.655-40.9363Q157.568-40.42 158.709-40.42Q160.594-40.42 161.919-41.5079Q163.245-42.5958 163.245-44.5308Q163.245-46.8122 161.516-48.2748L96.8589-102.675Q93.5215-105.48 89.7597-105.48Q85.9978-105.48 82.6856-102.675L17.8655-48.2748Q16.084-46.8122 16.084-44.6889ZM130.375-70.9642L144.759-58.8449L144.759-87.8961Q144.759-91.9143 140.713-91.9143L134.499-91.9143Q132.664-91.9143 131.52-90.8099Q130.375-89.7055 130.375-87.8961Z"/>
</g>
</svg>
