<svg xmlns="http://www.w3.org/2000/svg">
<g id="Regular-L">
<path d="M70.166 21.7285C74.0723 21.7285 76.7578 18.8965 76.7578 15.0391L76.7578-9.7168L78.8086-9.7168C104.443-9.7168 120.361-3.125 130.762 17.334C132.715 21.0449 135.205 21.7285 137.744 21.7285C140.82 21.7285 143.604 19.043 143.604 14.209C143.604-33.3496 122.559-60.5957 78.8086-60.5957L76.7578-60.5957L76.7578-85.2539C76.7578-89.1113 74.0723-92.2852 70.0684-92.2852C67.2363-92.2852 65.2832-91.0156 62.4023-88.3301L12.793-41.9922C10.1562-39.502 9.47266-37.3047 9.47266-35.2539C9.47266-33.3008 10.2051-31.0547 12.793-28.6133L62.4023 18.0664C65.0391 20.5566 67.334 21.7285 70.166 21.7285Z"/>
</g>
</svg>
